<?xml version="1.0" standalone="no"?>
<!DOCTYPE svg PUBLIC "-//W3C//DTD SVG 20010904//EN"
 "http://www.w3.org/TR/2001/REC-SVG-20010904/DTD/svg10.dtd">
<svg version="1.0" xmlns="http://www.w3.org/2000/svg"
 width="600.000000pt" height="600.000000pt" viewBox="0 0 600.000000 600.000000"
 preserveAspectRatio="xMidYMid meet">
<metadata>
Created by potrace 1.16, written by Peter Selinger 2001-2019
</metadata>
<g transform="translate(0.000000,600.000000) scale(0.100000,-0.100000)"
fill="#000000" stroke="none">
<path d="M1130 3984 c-53 -23 -90 -75 -90 -128 0 -12 16 -72 36 -132 19 -60
37 -116 39 -124 2 -8 13 -42 25 -75 51 -139 72 -245 49 -245 -4 0 -11 -9 -14
-20 -16 -50 -135 -66 -175 -24 -10 11 -30 55 -44 100 -28 84 -47 109 -105 139
-44 22 -115 14 -149 -18 -46 -41 -64 -116 -43 -169 6 -13 21 -61 36 -108 14
-47 29 -94 34 -105 4 -11 36 -105 69 -210 34 -104 104 -319 156 -477 52 -158
100 -305 106 -327 13 -51 43 -87 91 -111 50 -26 85 -25 134 3 50 28 77 78 72
132 -4 37 -45 168 -150 478 -24 73 -42 140 -39 155 6 39 66 82 114 82 57 0
110 -36 123 -84 4 -11 10 -30 15 -41 5 -11 19 -51 31 -89 33 -99 85 -146 165
-146 53 0 91 25 118 77 23 45 20 101 -9 181 -33 91 -33 141 0 180 14 17 38 34
53 40 31 10 85 5 90 -9 2 -5 11 -9 21 -9 25 0 43 -39 105 -224 75 -227 96
-248 233 -238 38 3 91 65 98 115 7 47 -6 94 -107 387 -22 63 -41 122 -43 130
-2 8 -39 123 -82 255 -44 132 -90 272 -102 310 -38 123 -80 165 -164 165 -84
0 -147 -57 -147 -132 0 -29 28 -139 50 -193 28 -71 60 -186 60 -217 0 -83
-124 -136 -192 -82 -40 31 -54 65 -159 389 -109 333 -118 356 -158 397 -32 33
-101 43 -151 22z"/>
<path d="M2485 3535 c-76 -27 -128 -112 -111 -180 10 -41 56 -84 131 -123 53
-28 71 -43 73 -61 2 -13 -1 -28 -7 -34 -19 -19 -88 -11 -136 18 -26 15 -48 25
-49 23 -23 -26 -56 -93 -52 -103 12 -31 89 -58 176 -62 74 -4 91 -1 129 19 54
28 81 75 81 140 0 64 -39 107 -142 159 -79 39 -94 59 -66 87 16 16 67 15 98
-3 14 -8 30 -14 37 -15 11 0 63 77 63 94 0 12 -85 43 -135 50 -33 4 -64 1 -90
-9z"/>
<path d="M2917 3528 c-3 -7 -51 -124 -105 -260 l-100 -248 68 0 69 0 18 50 18
51 94 -3 93 -3 17 -45 16 -45 68 -3 c37 -2 67 1 67 5 0 4 -46 122 -102 261
l-102 252 -57 0 c-36 0 -59 -5 -62 -12z"/>
<path d="M3250 3281 l0 -261 65 0 64 0 3 92 3 91 69 -91 70 -92 83 0 84 0 -86
102 -85 102 30 24 c17 13 37 37 45 52 22 42 19 128 -5 167 -33 55 -69 67 -212
71 l-128 4 0 -261z"/>
<path d="M3700 3280 l0 -260 65 0 64 0 3 96 3 97 83 -97 84 -96 90 0 89 0
-115 129 c-64 71 -116 134 -116 141 0 6 43 62 95 123 52 61 95 114 95 119 0 4
-33 8 -73 8 l-73 0 -80 -97 -79 -96 -3 96 -3 97 -64 0 -65 0 0 -260z"/>
<path d="M3933 2982 c-73 -26 -117 -64 -147 -125 -70 -142 -23 -307 105 -371
66 -33 171 -36 234 -7 196 89 204 392 13 485 -73 36 -139 41 -205 18z m152
-134 c70 -55 73 -183 5 -243 -16 -15 -36 -20 -75 -20 -60 0 -89 19 -111 72
-43 101 16 213 111 213 28 0 51 -7 70 -22z"/>
<path d="M4499 2993 c-15 -2 -51 -18 -80 -36 -44 -26 -60 -44 -86 -95 -28 -54
-33 -74 -33 -130 1 -109 40 -185 122 -239 77 -51 218 -42 292 19 55 45 76 94
76 178 l0 70 -120 0 -120 0 0 -50 0 -50 55 0 c38 0 55 -4 55 -13 0 -25 -32
-57 -69 -68 -32 -9 -44 -8 -74 6 -102 48 -110 217 -14 275 52 32 121 20 150
-27 4 -7 12 -13 17 -13 14 0 79 72 80 87 0 22 -79 71 -131 82 -50 11 -71 12
-120 4z"/>
<path d="M3010 2731 l0 -261 131 0 c102 0 139 4 166 17 49 23 73 66 73 131 0
48 -4 58 -34 88 -19 19 -41 34 -50 34 -11 0 -10 6 8 25 30 32 39 77 26 126
-21 75 -54 92 -202 97 l-118 4 0 -261z"/>
<path d="M3420 2730 l0 -260 155 0 155 0 0 55 0 55 -90 0 -90 0 0 205 0 205
-65 0 -65 0 0 -260z"/>
<path d="M2534 2250 c-20 -54 -25 -54 -44 3 -7 21 -18 37 -27 37 -10 0 -13 -6
-8 -17 3 -10 16 -46 28 -80 12 -35 25 -63 29 -63 3 0 14 20 24 45 9 25 20 45
24 45 4 0 15 -20 24 -45 10 -25 21 -43 26 -40 5 3 19 36 32 73 l23 67 3 -67 3
-68 44 0 c25 0 45 5 45 10 0 6 -13 10 -30 10 -25 0 -30 4 -30 25 0 20 5 25 25
25 14 0 25 5 25 10 0 6 -11 10 -25 10 -18 0 -25 5 -25 20 0 16 7 20 30 20 17
0 30 5 30 10 0 6 -26 10 -59 10 l-59 0 -19 -47 -19 -48 -19 53 c-10 28 -22 52
-26 52 -4 0 -15 -23 -25 -50z"/>
<path d="M3043 2292 c-31 -5 -53 -39 -53 -83 0 -83 115 -108 149 -32 31 67
-19 127 -96 115z"/>
<path d="M3501 2257 c-11 -27 -21 -54 -22 -60 0 -7 -8 11 -18 38 -10 29 -25
51 -34 53 -15 3 -14 -6 9 -70 33 -88 40 -99 53 -67 5 13 14 38 21 54 l12 30
20 -52 c12 -29 24 -53 28 -53 3 0 18 33 33 73 l26 72 0 -67 c1 -54 4 -68 16
-68 12 0 15 14 15 65 0 58 2 65 20 65 18 0 20 -7 20 -65 0 -37 4 -65 10 -65 6
0 10 28 10 65 0 58 2 65 20 65 18 0 20 -7 20 -65 0 -51 3 -65 15 -65 10 0 15
11 15 35 0 32 2 35 30 35 28 0 30 -3 30 -35 0 -24 5 -35 15 -35 12 0 15 15 15
75 0 60 -3 75 -15 75 -10 0 -15 -10 -15 -30 0 -27 -3 -30 -30 -30 -27 0 -30 3
-30 30 l0 30 -94 0 -94 0 -12 -37 c-14 -43 -30 -65 -31 -42 0 7 -9 32 -19 54
l-18 40 -21 -48z"/>
<path d="M4182 2292 c-12 -2 -32 -17 -44 -33 -27 -36 -78 -42 -78 -9 0 16 7
20 30 20 17 0 30 5 30 10 0 6 -38 10 -95 10 -57 0 -95 -4 -95 -10 0 -5 9 -10
20 -10 18 0 20 -7 20 -65 0 -51 3 -65 15 -65 12 0 15 14 15 65 0 51 3 65 15
65 12 0 15 -14 15 -65 l0 -65 45 0 c25 0 45 5 45 10 0 6 -13 10 -30 10 -25 0
-30 4 -30 25 0 21 5 25 29 25 22 0 31 -6 41 -29 22 -54 120 -69 120 -19 0 17
-3 19 -12 10 -29 -29 -88 1 -88 45 0 11 9 28 21 38 17 16 25 17 50 8 25 -10
29 -9 29 7 0 19 -28 28 -68 22z"/>
<path d="M4604 2290 c-42 -17 -65 -71 -48 -115 10 -25 62 -48 93 -40 42 11 61
34 61 77 0 36 -26 78 -49 78 -5 0 -15 2 -23 4 -7 3 -23 1 -34 -4z"/>
<path d="M4834 2290 c-42 -17 -65 -71 -48 -115 4 -8 20 -23 36 -31 38 -19 82
-10 107 22 18 23 20 24 26 5 12 -38 96 -51 124 -17 5 6 12 23 16 39 7 26 5 27
-29 27 -25 0 -36 -4 -36 -15 0 -9 9 -15 21 -15 18 0 19 -2 9 -15 -28 -33 -90
-4 -90 42 0 23 29 53 51 53 8 0 24 -7 36 -15 27 -19 43 -1 20 22 -25 25 -88
19 -114 -11 -21 -25 -23 -25 -32 -7 -8 14 -66 46 -75 40 -1 0 -11 -4 -22 -9z"/>
<path d="M3140 2288 c0 -14 59 -150 66 -151 4 -1 20 30 35 68 l28 70 0 -67 1
-68 45 0 c25 0 45 5 45 10 0 6 -13 10 -30 10 -25 0 -30 4 -30 25 0 21 5 25 30
25 17 0 30 5 30 10 0 6 -13 10 -30 10 -23 0 -30 4 -30 20 0 16 7 20 30 20 17
0 30 5 30 10 0 6 -26 10 -58 10 l-58 0 -20 -47 -20 -48 -15 45 c-9 26 -23 46
-32 48 -9 2 -17 2 -17 0z"/>
</g>
</svg>
