<?xml version="1.0" standalone="no"?>
<!DOCTYPE svg PUBLIC "-//W3C//DTD SVG 20010904//EN"
 "http://www.w3.org/TR/2001/REC-SVG-20010904/DTD/svg10.dtd">
<svg version="1.0" xmlns="http://www.w3.org/2000/svg"
 width="300.000000pt" height="300.000000pt" viewBox="0 0 300.000000 300.000000"
 preserveAspectRatio="xMidYMid meet">
<metadata>
Created by potrace 1.10, written by Peter Selinger 2001-2011
</metadata>
<g transform="translate(0.000000,300.000000) scale(0.100000,-0.100000)"
fill="#000000" stroke="none">
<path d="M547 1972 c-25 -27 -21 -54 24 -191 l41 -123 -19 -27 c-38 -51 -106
-37 -117 25 -8 41 -46 84 -74 84 -27 0 -72 -38 -72 -61 0 -11 50 -169 110
-353 107 -324 111 -334 141 -347 27 -10 36 -10 58 2 41 23 38 65 -14 219 -25
74 -45 144 -45 157 0 24 34 53 62 53 29 0 65 -42 82 -96 21 -65 44 -86 87 -82
24 2 38 11 48 29 13 24 13 33 -4 87 -17 57 -17 63 -1 86 21 33 59 43 90 22 17
-11 33 -43 56 -111 23 -68 39 -100 56 -111 31 -21 69 -11 90 22 17 25 15 33
-76 312 -51 158 -97 293 -103 301 -31 38 -108 27 -119 -17 -3 -11 8 -63 25
-116 24 -75 29 -102 21 -124 -13 -36 -56 -51 -92 -31 -23 12 -36 40 -87 196
-33 99 -66 188 -74 197 -18 22 -74 20 -94 -2z m73 -14 c0 -6 6 -19 14 -27 8
-9 36 -81 61 -161 66 -202 68 -207 116 -215 32 -6 46 -3 73 15 42 29 44 63 11
160 -33 98 -33 126 2 133 36 7 46 2 60 -31 35 -78 153 -445 153 -474 0 -10 4
-18 9 -18 5 0 11 -14 13 -31 6 -36 -13 -59 -48 -59 -26 0 -32 11 -74 130 -12
36 -31 73 -41 83 -11 10 -19 25 -20 35 0 10 -3 12 -6 5 -2 -7 -14 -13 -24 -13
-26 0 -76 -26 -82 -42 -4 -10 -8 -10 -17 2 -14 19 -6 -29 18 -108 15 -51 15
-53 -6 -72 -20 -19 -24 -19 -49 -6 -19 10 -32 28 -41 58 -7 23 -23 58 -35 75
-18 27 -28 33 -60 33 -44 0 -87 -35 -87 -71 0 -21 28 -122 70 -249 21 -66 22
-91 2 -106 -11 -8 -61 -8 -62 0 0 0 -14 39 -30 86 -16 47 -30 95 -30 107 0 12
-4 25 -10 28 -5 3 -10 17 -10 30 0 13 -4 25 -8 27 -5 2 -32 77 -61 168 -28 91
-56 173 -61 182 -25 44 -1 82 46 76 29 -3 39 -16 48 -60 17 -78 117 -92 159
-21 l18 32 -40 127 c-44 137 -47 154 -29 172 15 15 58 16 58 0z"/>
<path d="M1218 1750 c-21 -16 -28 -30 -28 -55 0 -35 16 -52 80 -88 27 -14 30
-20 20 -32 -16 -19 -44 -19 -74 0 -21 14 -23 13 -36 -11 -16 -29 -9 -37 49
-53 67 -19 131 18 131 76 0 25 -43 73 -65 73 -7 0 -23 8 -35 18 -20 16 -20 19
-6 31 12 10 23 11 46 3 26 -10 31 -8 41 10 15 27 1 39 -53 45 -34 4 -49 0 -70
-17z m32 -10 c0 -5 -5 -10 -11 -10 -5 0 -7 5 -4 10 3 6 8 10 11 10 2 0 4 -4 4
-10z m-20 -39 c0 -6 -4 -13 -10 -16 -5 -3 -10 1 -10 9 0 9 5 16 10 16 6 0 10
-4 10 -9z m50 -61 c0 -5 -2 -10 -4 -10 -3 0 -8 5 -11 10 -3 6 -1 10 4 10 6 0
11 -4 11 -10z m45 -20 c3 -5 1 -10 -4 -10 -6 0 -11 5 -11 10 0 6 2 10 4 10 3
0 8 -4 11 -10z m0 -40 c3 -5 1 -10 -4 -10 -6 0 -11 5 -11 10 0 6 2 10 4 10 3
0 8 -4 11 -10z m5 -30 c0 -5 -8 -10 -17 -10 -15 0 -16 2 -3 10 19 12 20 12 20
0z m-40 -10 c0 -5 -5 -10 -11 -10 -5 0 -7 5 -4 10 3 6 8 10 11 10 2 0 4 -4 4
-10z m-43 -6 c-3 -3 -12 -4 -19 -1 -8 3 -5 6 6 6 11 1 17 -2 13 -5z"/>
<path d="M1415 1653 c-26 -65 -50 -124 -52 -130 -4 -9 6 -13 30 -13 29 0 36 4
39 23 3 19 10 22 55 25 49 3 53 1 59 -22 5 -22 12 -26 40 -26 l34 0 -21 53
c-12 28 -35 87 -52 130 -27 69 -33 77 -57 77 -25 0 -30 -9 -75 -117z m103 53
c17 -39 15 -55 -4 -28 -25 36 -34 25 -13 -18 24 -50 25 -50 -12 -50 -26 0 -30
3 -24 18 14 33 17 60 7 66 -16 9 -2 44 16 42 10 0 23 -14 30 -30z m-61 -48
c-3 -8 -6 -5 -6 6 -1 11 2 17 5 13 3 -3 4 -12 1 -19z m-8 -74 c-5 -7 -18 -14
-28 -17 -17 -4 -17 -2 -2 40 l16 44 12 -28 c7 -18 8 -32 2 -39z m109 29 c16
-36 16 -61 0 -45 -7 7 -21 12 -32 12 -18 0 -18 1 -2 19 10 11 15 25 11 30 -3
6 -3 11 2 11 4 0 14 -12 21 -27z m-148 -73 c0 -5 -4 -10 -10 -10 -5 0 -10 5
-10 10 0 6 5 10 10 10 6 0 10 -4 10 -10z"/>
<path d="M1630 1640 l0 -130 31 0 c31 0 31 0 27 50 -1 28 -1 50 2 50 3 0 20
-23 39 -50 31 -46 37 -50 73 -50 l40 0 -43 53 -44 52 27 27 c36 34 35 62 -1
99 -26 26 -36 29 -90 29 l-61 0 0 -130z m37 54 c0 -61 34 -84 74 -48 13 12 19
12 25 3 4 -7 3 -10 -3 -6 -6 4 -13 0 -17 -8 -3 -9 -19 -15 -41 -15 -36 0 -39
-4 -38 -72 0 -10 -4 -18 -9 -18 -4 0 -8 50 -8 111 0 60 4 108 9 105 4 -3 8
-26 8 -52z m71 -3 c4 -23 -11 -41 -35 -41 -8 0 -13 14 -13 36 0 31 3 35 23 32
14 -2 23 -11 25 -27z m42 -8 c0 -15 -3 -23 -7 -20 -9 10 -10 56 -1 51 4 -3 8
-17 8 -31z m-36 -89 c10 -25 -1 -29 -14 -5 -6 12 -7 21 -1 21 5 0 12 -7 15
-16z"/>
<path d="M1850 1640 l0 -130 29 0 c29 0 29 1 33 60 4 73 -15 76 -22 4 -7 -74
-17 -24 -15 79 2 89 15 138 15 56 0 -32 6 -49 20 -62 11 -9 18 -22 15 -29 -2
-7 15 -35 38 -61 39 -44 46 -48 82 -45 l39 3 -59 63 c-43 46 -56 67 -49 77 5
7 29 36 52 64 l44 51 -36 0 c-30 0 -41 -7 -80 -56 l-46 -56 0 56 c0 56 0 56
-30 56 l-30 0 0 -130z m120 40 c0 -5 -4 -10 -10 -10 -5 0 -10 5 -10 10 0 6 5
10 10 10 6 0 10 -4 10 -10z m-13 -45 c8 -17 8 -27 1 -32 -6 -3 -8 -1 -5 4 4 6
0 13 -8 17 -8 3 -15 12 -15 21 0 23 14 18 27 -10z"/>
<path d="M1955 1481 c-71 -32 -97 -120 -55 -188 36 -59 101 -78 166 -47 43 21
67 65 66 122 -1 96 -90 152 -177 113z m95 -61 c25 -25 27 -86 3 -112 -19 -22
-76 -24 -92 -4 -24 28 -24 79 -1 109 26 32 62 35 90 7z m-111 -124 c7 -9 10
-16 6 -16 -18 0 -34 38 -33 80 l1 45 6 -46 c4 -26 13 -54 20 -63z m168 47 c-3
-10 -5 -2 -5 17 0 19 2 27 5 18 2 -10 2 -26 0 -35z m-14 -38 c-3 -9 -8 -14
-10 -11 -3 3 -2 9 2 15 9 16 15 13 8 -4z"/>
<path d="M2243 1493 c-35 -7 -81 -59 -89 -100 -10 -53 13 -112 55 -140 78 -53
177 -5 186 90 l3 37 -64 0 c-62 0 -64 -1 -64 -26 0 -22 4 -25 28 -24 41 3 44
2 33 -19 -6 -10 -23 -22 -37 -25 -61 -16 -104 84 -59 134 21 24 62 26 85 5 15
-14 19 -13 34 4 22 24 14 39 -30 57 -34 14 -41 15 -81 7z m-38 -74 c-9 -17
-19 -29 -22 -26 -5 5 25 57 33 57 3 0 -3 -14 -11 -31z m-1 -119 c4 -8 0 -6 -8
4 -9 11 -15 34 -15 50 1 31 1 31 8 -4 4 -20 11 -42 15 -50z"/>
<path d="M1510 1360 l0 -130 50 0 c67 0 118 22 126 54 8 33 -3 64 -27 76 -18
10 -18 12 -3 35 9 14 13 33 9 44 -12 40 -34 51 -96 51 l-59 0 0 -130z m88 81
c20 -12 10 -45 -14 -49 -17 -2 -21 2 -21 28 0 30 11 37 35 21z m-38 -76 c0 -8
-4 -17 -10 -20 -6 -4 -10 5 -10 20 0 15 4 24 10 20 6 -3 10 -12 10 -20z m60
-40 c16 -19 -3 -45 -34 -45 -17 0 -21 6 -21 30 0 24 4 30 21 30 12 0 27 -7 34
-15z"/>
<path d="M1710 1360 l0 -130 75 0 75 0 0 31 c0 31 -1 31 -45 27 l-45 -3 0 102
0 103 -30 0 -30 0 0 -130z m50 -91 c0 -5 -4 -9 -10 -9 -5 0 -10 7 -10 16 0 8
5 12 10 9 6 -3 10 -10 10 -16z"/>
<path d="M1231 1140 c0 -8 6 -28 14 -45 13 -29 14 -29 20 -7 4 12 11 22 15 22
4 0 11 -10 15 -22 6 -22 7 -22 20 7 8 17 14 37 14 45 0 8 -7 2 -14 -15 -14
-29 -15 -29 -21 -7 -8 28 -21 28 -30 0 -6 -21 -7 -20 -19 8 -8 16 -14 22 -14
14z"/>
<path d="M1338 1110 c-3 -37 -2 -40 22 -39 17 1 19 3 8 6 -22 5 -24 23 -3 23
21 0 19 18 -2 23 -17 4 -17 5 0 6 23 1 22 21 -2 21 -15 0 -20 -9 -23 -40z"/>
<path d="M1417 1130 c-4 -14 -6 -34 -6 -45 1 -17 2 -16 9 5 l8 25 7 -22 c4
-13 11 -23 15 -23 4 0 11 10 15 23 l7 22 8 -25 c6 -20 8 -21 9 -6 1 19 2 19
14 2 21 -29 61 -17 67 19 l6 30 13 -35 13 -35 14 30 c7 17 13 37 13 45 0 8 -7
2 -14 -15 l-13 -30 -12 30 c-7 17 -14 25 -17 18 -3 -10 -9 -10 -23 0 -16 9
-23 7 -45 -13 l-25 -23 -1 24 c-1 23 -1 23 -11 -3 -5 -16 -13 -28 -17 -28 -4
0 -12 12 -17 28 l-10 27 -7 -25z m141 -24 c-2 -13 -10 -21 -23 -21 -23 0 -33
34 -14 45 20 13 40 -1 37 -24z"/>
<path d="M1640 1110 c0 -35 3 -40 23 -39 16 1 18 2 5 6 -22 5 -24 23 -3 23 21
0 19 18 -2 23 -17 4 -17 5 0 6 24 1 22 21 -3 21 -17 0 -20 -7 -20 -40z"/>
<path d="M1711 1140 c0 -8 6 -28 14 -45 13 -29 14 -29 20 -7 4 12 11 22 15 22
5 0 12 -10 16 -22 7 -22 8 -22 20 7 7 17 13 37 13 45 0 8 -6 2 -13 -15 l-13
-30 -10 30 -11 30 -12 -30 -12 -30 -13 30 c-7 17 -14 23 -14 15z"/>
<path d="M1821 1108 l2 -43 7 40 c6 40 15 35 23 -15 4 -21 5 -20 6 7 2 47 21
52 22 6 1 -21 3 -30 6 -20 2 9 13 17 23 17 10 0 21 -8 23 -17 3 -10 5 2 5 27
0 25 -2 37 -5 28 -5 -22 -43 -24 -43 -3 0 10 -11 15 -35 15 -35 0 -35 0 -34
-42z"/>
<path d="M1970 1140 c0 -5 4 -10 8 -10 5 0 7 -13 4 -30 -3 -18 0 -30 7 -30 6
0 11 11 11 24 0 13 3 31 6 40 4 12 0 16 -15 16 -12 0 -21 -4 -21 -10z"/>
<path d="M2020 1110 c0 -35 3 -40 23 -39 16 1 18 2 5 6 -10 2 -18 11 -18 19 0
8 5 12 10 9 6 -3 10 -2 10 4 0 5 -6 12 -12 14 -8 3 -6 6 5 6 24 1 22 21 -3 21
-17 0 -20 -7 -20 -40z"/>
<path d="M2075 1134 c-8 -9 -15 -21 -15 -28 0 -20 27 -38 47 -33 15 4 14 5 -3
6 -22 1 -39 25 -28 42 3 5 16 9 30 9 20 0 24 -5 24 -30 0 -16 5 -30 10 -30 6
0 10 7 10 15 0 21 28 19 33 -2 3 -10 5 2 5 27 0 25 -2 37 -5 28 -5 -21 -33
-24 -33 -5 0 19 -56 19 -75 1z"/>
<path d="M2202 1110 c1 -31 2 -36 5 -16 l5 28 29 -28 29 -28 -2 45 c-1 36 -2
38 -5 12 l-4 -32 -29 32 -29 32 1 -45z"/>
<path d="M2290 1136 c-6 -8 -10 -25 -8 -38 4 -30 46 -38 65 -12 12 16 13 16
13 1 0 -10 7 -17 18 -16 10 0 12 3 5 6 -7 2 -14 21 -14 41 -1 26 -3 30 -6 13
l-5 -23 -14 21 c-18 25 -37 27 -54 7z m48 -30 c-2 -13 -10 -21 -23 -21 -23 0
-33 34 -14 45 20 13 40 -1 37 -24z"/>
<path d="M2408 1139 c-21 -12 -23 -40 -6 -57 15 -15 55 -16 60 -1 3 8 10 8 26
-2 16 -10 27 -11 39 -3 27 17 27 34 1 33 -12 0 -17 -3 -10 -6 19 -7 14 -23 -7
-23 -20 0 -35 25 -25 42 4 5 17 8 31 5 15 -3 22 0 20 7 -6 17 -33 18 -50 2
-13 -14 -16 -14 -27 -1 -14 17 -28 18 -52 4z m47 -34 c0 -25 -40 -33 -49 -10
-9 24 2 37 27 33 14 -2 22 -10 22 -23z"/>
<path d="M2550 1150 c0 -3 7 -23 15 -45 8 -22 14 -32 15 -22 0 10 7 29 16 42
9 14 12 25 6 25 -5 0 -13 -7 -16 -17 -6 -14 -8 -14 -21 3 -8 10 -14 17 -15 14z"/>
</g>
</svg>
